<svg width="30" height="29" viewBox="0 0 30 29" fill="none" xmlns="http://www.w3.org/2000/svg">
<path d="M15.6 12.1595H14.4V20.7365H15.6V12.1595Z" fill="#960000"/>
<path d="M16.59 3.58838H13.41C12.8531 3.58838 12.3189 3.80441 11.9251 4.18896C11.5313 4.5735 11.31 5.09506 11.31 5.63888V6.41222H5.52603C5.3669 6.41222 5.21428 6.47394 5.10176 6.58381C4.98924 6.69368 4.92603 6.8427 4.92603 6.99808C4.92603 7.15346 4.98924 7.30247 5.10176 7.41234C5.21428 7.52221 5.3669 7.58393 5.52603 7.58393H7.11903V22.1894C7.11903 23.1217 7.49831 24.0158 8.17344 24.675C8.84857 25.3342 9.76425 25.7045 10.719 25.7045H19.281C20.2358 25.7045 21.1515 25.3342 21.8266 24.675C22.5017 24.0158 22.881 23.1217 22.881 22.1894V7.58393H24.474C24.6332 7.58393 24.7858 7.52221 24.8983 7.41234C25.0108 7.30247 25.074 7.15346 25.074 6.99808C25.074 6.8427 25.0108 6.69368 24.8983 6.58381C24.7858 6.47394 24.6332 6.41222 24.474 6.41222H18.69V5.63888C18.69 5.09506 18.4688 4.5735 18.075 4.18896C17.6811 3.80441 17.147 3.58838 16.59 3.58838ZM12.507 5.63888C12.507 5.40582 12.6018 5.18229 12.7706 5.01749C12.9394 4.85268 13.1683 4.7601 13.407 4.7601H16.59C16.8287 4.7601 17.0576 4.85268 17.2264 5.01749C17.3952 5.18229 17.49 5.40582 17.49 5.63888V6.41222H12.51L12.507 5.63888ZM21.681 7.58393V22.1894C21.681 22.8109 21.4282 23.407 20.9781 23.8464C20.528 24.2859 19.9175 24.5328 19.281 24.5328H10.719C10.0825 24.5328 9.47206 24.2859 9.02197 23.8464C8.57188 23.407 8.31903 22.8109 8.31903 22.1894V7.58393H21.681Z" fill="#960000"/>
<path d="M12 12.1595H10.8V20.7365H12V12.1595Z" fill="#960000"/>
<path d="M19.2 12.1595H18V20.7365H19.2V12.1595Z" fill="#960000"/>
</svg>
