<svg width="72" height="74" viewBox="0 0 72 74" fill="none" xmlns="http://www.w3.org/2000/svg">
<g clip-path="url(#clip0)">
<path d="M32.625 43.875H1.125C0.502875 43.875 0 43.3721 0 42.75V6.75C0 6.129 0.502875 5.625 1.125 5.625H37.125C37.7471 5.625 38.25 6.129 38.25 6.75V36C38.25 36.621 37.7471 37.125 37.125 37.125C36.5029 37.125 36 36.621 36 36V7.875H2.25V41.625H32.625C33.2471 41.625 33.75 42.1279 33.75 42.75C33.75 43.3721 33.2471 43.875 32.625 43.875Z" fill="#6FF3C8"/>
<path d="M19.125 28.125C17.2642 28.125 15.75 26.6108 15.75 24.75C15.75 22.8892 17.2642 21.375 19.125 21.375C20.9858 21.375 22.5 22.8892 22.5 24.75C22.5 26.6108 20.9858 28.125 19.125 28.125ZM19.125 23.625C18.504 23.625 18 24.1301 18 24.75C18 25.3699 18.504 25.875 19.125 25.875C19.746 25.875 20.25 25.3699 20.25 24.75C20.25 24.1301 19.746 23.625 19.125 23.625Z" fill="#6FF3C8"/>
<path d="M19.125 40.5C14.7409 40.5 12.375 32.3854 12.375 24.75C12.375 17.1146 14.7409 9 19.125 9C23.5091 9 25.875 17.1146 25.875 24.75C25.875 32.3854 23.5091 40.5 19.125 40.5ZM19.125 11.25C17.2463 11.25 14.625 16.3856 14.625 24.75C14.625 33.1144 17.2463 38.25 19.125 38.25C21.0037 38.25 23.625 33.1144 23.625 24.75C23.625 16.3856 21.0037 11.25 19.125 11.25Z" fill="#6FF3C8"/>
<path d="M28.116 34.6624C24.7837 34.6624 20.1611 33.1425 15.75 30.5955C9.13837 26.7773 3.294 20.6719 5.4855 16.875C6.02325 15.9458 7.26412 14.8376 10.1351 14.8376C13.4674 14.8376 18.09 16.3586 22.5 18.9045C25.9999 20.925 28.9991 23.3629 30.9454 25.7693C33.12 28.458 33.7657 30.8936 32.7656 32.6261C32.2279 33.5543 30.987 34.6624 28.116 34.6624ZM10.1351 17.0876C8.7525 17.0876 7.76925 17.4195 7.43512 18C6.49462 19.6268 9.63225 24.4654 16.875 28.647C20.9599 31.005 25.1617 32.4124 28.116 32.4124C29.5177 32.4124 30.4774 32.0884 30.816 31.5C31.2964 30.6675 30.6754 29.0138 29.196 27.1834C27.4196 24.9874 24.642 22.7385 21.375 20.853C17.2912 18.495 13.0905 17.0876 10.1351 17.0876Z" fill="#6FF3C8"/>
<path d="M10.134 34.6624C7.26412 34.6624 6.02325 33.5554 5.4855 32.625C3.294 28.827 9.13837 22.7216 15.75 18.9045C20.1611 16.3575 24.7837 14.8365 28.1171 14.8365C30.9881 14.8365 32.229 15.9446 32.7667 16.875C34.9571 20.6719 29.1127 26.7772 22.5 30.5955C18.09 33.1414 13.4674 34.6624 10.134 34.6624ZM28.1171 17.0865C25.1617 17.0865 20.9599 18.4939 16.875 20.853C9.63225 25.0346 6.49462 29.8721 7.434 31.5C7.77375 32.0872 8.73225 32.4124 10.1329 32.4124C13.0882 32.4124 17.2901 31.005 21.3739 28.647C28.6166 24.4642 31.7565 19.6267 30.8171 18C30.4785 17.4116 29.5189 17.0865 28.1171 17.0865Z" fill="#6FF3C8"/>
<path d="M1.12504 7.87504C0.837037 7.87504 0.549037 7.76479 0.329662 7.54541C-0.110213 7.10554 -0.110213 6.39454 0.329662 5.95466L5.95466 0.329662C6.39454 -0.110213 7.10554 -0.110213 7.54541 0.329662C7.98529 0.769537 7.98529 1.48054 7.54541 1.92041L1.92041 7.54541C1.70104 7.76479 1.41304 7.87504 1.12504 7.87504Z" fill="#6FF3C8"/>
<path d="M37.125 7.87504C36.837 7.87504 36.549 7.76479 36.3296 7.54541C35.8898 7.10554 35.8898 6.39454 36.3296 5.95466L41.9546 0.329662C42.3945 -0.110213 43.1055 -0.110213 43.5454 0.329662C43.9853 0.769537 43.9853 1.48054 43.5454 1.92041L37.9204 7.54541C37.701 7.76479 37.413 7.87504 37.125 7.87504Z" fill="#6FF3C8"/>
<path d="M42.75 2.25H6.75C6.12788 2.25 5.625 1.746 5.625 1.125C5.625 0.504 6.12788 0 6.75 0H42.75C43.3721 0 43.875 0.504 43.875 1.125C43.875 1.746 43.3721 2.25 42.75 2.25Z" fill="#6FF3C8"/>
<path d="M42.75 37.125C42.1279 37.125 41.625 36.621 41.625 36V1.125C41.625 0.504 42.1279 0 42.75 0C43.3721 0 43.875 0.504 43.875 1.125V36C43.875 36.621 43.3721 37.125 42.75 37.125Z" fill="#6FF3C8"/>
<path d="M51.7837 64.125C51.1616 64.125 50.6531 63.6221 50.6531 63C50.6531 62.3779 51.1504 61.875 51.7714 61.875H51.7837C52.4047 61.875 52.9087 62.3779 52.9087 63C52.9087 63.6221 52.4047 64.125 51.7837 64.125Z" fill="#6FF3C8"/>
<path d="M70.875 61.875H32.6779C32.0558 61.875 31.5529 61.3721 31.5529 60.75C31.5529 60.1279 32.0558 59.625 32.6779 59.625H70.875C71.4971 59.625 72 60.1279 72 60.75C72 61.3721 71.4971 61.875 70.875 61.875Z" fill="#6FF3C8"/>
<path d="M68.625 66.375H34.875C33.0142 66.375 31.5 64.8608 31.5 63V38.25C31.5 36.3892 33.0142 34.875 34.875 34.875H68.625C70.4857 34.875 72 36.3892 72 38.25V63C72 64.8608 70.4857 66.375 68.625 66.375ZM34.875 37.125C34.254 37.125 33.75 37.629 33.75 38.25V63C33.75 63.621 34.254 64.125 34.875 64.125H68.625C69.246 64.125 69.75 63.621 69.75 63V38.25C69.75 37.629 69.246 37.125 68.625 37.125H34.875Z" fill="#6FF3C8"/>
<path d="M46.1261 72C46.053 72 45.9787 71.9932 45.9045 71.9775C45.2959 71.856 44.8999 71.2631 45.0225 70.6534L46.1475 65.0284C46.269 64.4186 46.8619 64.0181 47.4716 64.1464C48.0802 64.2679 48.4762 64.8607 48.3536 65.4705L47.2286 71.0955C47.1217 71.631 46.6515 72 46.1261 72Z" fill="#6FF3C8"/>
<path d="M57.3739 72C56.8485 72 56.3783 71.631 56.2725 71.0955L55.1475 65.4705C55.026 64.8607 55.4209 64.269 56.0295 64.1464C56.6438 64.0192 57.231 64.4197 57.3536 65.0284L58.4786 70.6534C58.6001 71.2631 58.2053 71.8549 57.5966 71.9775C57.5213 71.9932 57.4459 72 57.3739 72Z" fill="#6FF3C8"/>
<path d="M59.625 72H43.875C43.2529 72 42.75 71.4971 42.75 70.875C42.75 70.2529 43.2529 69.75 43.875 69.75H59.625C60.2471 69.75 60.75 70.2529 60.75 70.875C60.75 71.4971 60.2471 72 59.625 72Z" fill="#6FF3C8"/>
<path d="M50.625 42.75H38.25C37.6279 42.75 37.125 42.2471 37.125 41.625C37.125 41.0029 37.6279 40.5 38.25 40.5H50.625C51.2471 40.5 51.75 41.0029 51.75 41.625C51.75 42.2471 51.2471 42.75 50.625 42.75Z" fill="#6FF3C8"/>
<path d="M65.25 42.75H55.125C54.5029 42.75 54 42.2471 54 41.625C54 41.0029 54.5029 40.5 55.125 40.5H65.25C65.8721 40.5 66.375 41.0029 66.375 41.625C66.375 42.2471 65.8721 42.75 65.25 42.75Z" fill="#6FF3C8"/>
<path d="M42.75 47.25H38.25C37.6279 47.25 37.125 46.7471 37.125 46.125C37.125 45.5029 37.6279 45 38.25 45H42.75C43.3721 45 43.875 45.5029 43.875 46.125C43.875 46.7471 43.3721 47.25 42.75 47.25Z" fill="#6FF3C8"/>
<path d="M57.375 51.75H38.25C37.6279 51.75 37.125 51.2471 37.125 50.625C37.125 50.0029 37.6279 49.5 38.25 49.5H57.375C57.9971 49.5 58.5 50.0029 58.5 50.625C58.5 51.2471 57.9971 51.75 57.375 51.75Z" fill="#6FF3C8"/>
<path d="M48.375 56.25H38.25C37.6279 56.25 37.125 55.7471 37.125 55.125C37.125 54.5029 37.6279 54 38.25 54H48.375C48.9971 54 49.5 54.5029 49.5 55.125C49.5 55.7471 48.9971 56.25 48.375 56.25Z" fill="#6FF3C8"/>
<path d="M65.25 47.25H46.125C45.5029 47.25 45 46.7471 45 46.125C45 45.5029 45.5029 45 46.125 45H65.25C65.8721 45 66.375 45.5029 66.375 46.125C66.375 46.7471 65.8721 47.25 65.25 47.25Z" fill="#6FF3C8"/>
<path d="M65.25 51.75H61.875C61.2529 51.75 60.75 51.2471 60.75 50.625C60.75 50.0029 61.2529 49.5 61.875 49.5H65.25C65.8721 49.5 66.375 50.0029 66.375 50.625C66.375 51.2471 65.8721 51.75 65.25 51.75Z" fill="#6FF3C8"/>
<path d="M65.25 56.25H52.875C52.2529 56.25 51.75 55.7471 51.75 55.125C51.75 54.5029 52.2529 54 52.875 54H65.25C65.8721 54 66.375 54.5029 66.375 55.125C66.375 55.7471 65.8721 56.25 65.25 56.25Z" fill="#6FF3C8"/>
<path d="M47.25 22.5H40.5C39.8779 22.5 39.375 21.996 39.375 21.375C39.375 20.754 39.8779 20.25 40.5 20.25H47.25C47.8721 20.25 48.375 20.754 48.375 21.375C48.375 21.996 47.8721 22.5 47.25 22.5Z" fill="#6FF3C8"/>
<path d="M51.75 27C51.1279 27 50.625 26.496 50.625 25.875C50.625 24.0143 49.1107 22.5 47.25 22.5C46.6279 22.5 46.125 21.996 46.125 21.375C46.125 20.754 46.6279 20.25 47.25 20.25C50.3516 20.25 52.875 22.7734 52.875 25.875C52.875 26.496 52.3721 27 51.75 27Z" fill="#6FF3C8"/>
<path d="M51.75 37.125C51.1279 37.125 50.625 36.621 50.625 36V25.875C50.625 25.254 51.1279 24.75 51.75 24.75C52.3721 24.75 52.875 25.254 52.875 25.875V36C52.875 36.621 52.3721 37.125 51.75 37.125Z" fill="#6FF3C8"/>
</g>
<defs>
<clipPath id="clip0">
<rect width="72" height="74" fill="white"/>
</clipPath>
</defs>
</svg>
